<svg width="1052" height="500" viewBox="0 0 1052 500" fill="none" xmlns="http://www.w3.org/2000/svg">
<g clip-path="url(#clip0_262_1206)">
<path d="M295.424 42.2372C277.991 45.0102 261.424 58.4364 256.083 73.842C253.817 80.6019 254.368 83.563 258.875 87.1022C285.079 106.996 301.318 134.679 302.82 162.03C303.461 171.928 298.808 194.257 294.058 204.278C288.913 215.183 276.397 231.352 267.167 239.032C259.884 245.146 242.555 255.455 240.124 255.026C239.661 254.945 241.499 252.644 244.269 249.791C251.994 241.846 254.934 235.324 256.539 222.839C257.749 213.268 257.613 211.335 255.025 203.003C250.312 188.45 238.895 176.055 223.414 168.433C214.952 164.316 197.913 162.147 187.042 163.571C170.385 166.004 153.246 176.585 144.446 189.949C137.45 200.528 134.6 216.015 137.637 227.886C140.11 238.226 150.418 251.499 160.983 257.896C168.955 262.763 162.155 260.728 149.656 254.467C114.984 237.256 92.2291 201.862 92.0946 164.728C91.9607 131.652 107.307 104.169 134.936 87.5619C140.027 84.4026 143.24 81.7474 143.505 80.2429C144.77 73.0679 131.493 52.9474 120.246 44.9981C113.336 40.1999 112.751 37.9693 99.4427 35.6226L91.9513 34.9691L84.9006 35.6226L74.3304 38.0951C56.3327 43.3937 43.4279 55.6758 37.1949 73.43C28.3422 98.5977 40.177 126.22 64.2831 137.033L71.4584 140.327L70.1667 152.39C67.6783 174.623 71.4115 194.731 81.3869 214.627C86.6027 224.973 99.4098 243.698 102.351 245.291C103.563 245.862 102.991 247.074 99.4993 250.635C91.9511 258.253 80.6328 274.395 73.5347 287.581C63.9797 305.227 58.7064 321.599 55.619 343.846C53.6195 357.216 52.5718 361.804 51.367 362.546C50.4345 363.098 47.6985 366.434 45.1327 370.158C38.8644 379.314 35.218 395.257 36.7853 407.347C39.3478 428.68 53.5844 447.419 73.5581 455.952C82.3128 459.763 98.9704 461.388 109.093 459.474C113.64 458.724 132.631 452.527 151.105 445.88C197.358 429.217 195.5 429.605 209.489 433.504C215.752 435.204 233.568 441.09 248.953 446.548C292.201 461.81 304.611 463.163 324.086 454.903C343.152 446.929 356.518 426.614 357.087 405.117C357.392 393.238 352.781 378.106 346.463 369.952C343.733 366.488 341.037 363.507 340.574 363.425C340.111 363.343 339.511 359.3 339.306 354.371C338.521 337.17 331.846 311.412 324.111 295.729C316.11 279.522 303.419 260.817 293.581 250.969C291.151 248.512 291.171 248.396 293.689 245.618C297.494 241.635 307.07 227.931 310.745 221.3C320.137 204.58 326.742 173.885 324.766 155.996C324.309 151.143 324.363 147.453 325.098 147.344C325.717 147.215 329.23 145.567 332.899 143.708C355.3 132.384 365.044 106.897 357.491 80.0293C353.827 66.9735 341.286 52.8297 327.936 46.6574C318.896 42.4382 305.158 40.4932 295.424 42.2372ZM323.365 72.5801C336.219 82.2446 339.884 99.3576 331.778 112.844C328.892 117.705 319.669 124.67 316.776 124.16C316.102 123.921 313.835 120.539 311.901 116.618C307.394 106.993 296.861 92.9647 288.146 84.8653C284.238 81.3125 281.141 77.9024 281.243 77.3238C281.834 73.9678 293.624 67.3358 300.839 66.341C306.333 65.6391 318.627 69.0001 323.365 72.5801ZM108.895 66.7421C119.413 74.0857 119.413 74.0857 108.815 81.405C98.4896 88.5336 88.8656 99.127 82.7746 109.985C78.0584 118.461 76.2954 118.986 69.8482 114.269C61.0047 107.579 57.021 97.6883 58.7622 87.1368C60.2927 78.4574 63.2803 73.018 69.5287 68.0342C81.0725 58.7338 96.7836 58.2824 108.895 66.7421ZM218.828 181.586C230.789 187.513 240.988 200.051 242.644 210.963C243.884 218.818 241.53 230.813 237.828 236.245C231.226 245.94 216.993 253.573 202.895 255.025C192.065 256.218 175.7 252.258 167.177 246.459C159.94 241.484 154.289 234.283 151.885 226.938C149.406 219.342 152.399 203.045 157.585 195.964C170.503 178.196 198.636 171.582 218.828 181.586ZM282.202 271.515C295.227 287.653 305.039 306.446 311.032 326.595C315.656 342.326 316.624 348.343 316.49 362.639C316.409 373.244 316.185 374.517 313.252 380.324C309.883 387.248 303.744 392.967 297.563 394.86C295.412 395.555 290.62 395.664 287.032 395.032C281.457 394.168 279.823 393.283 276.051 389.635C269.679 383.142 268.099 378.568 267.791 364.075C266.915 335.879 262.562 309.815 257.551 304.397C254.664 301.144 251.172 300.647 247.347 302.717C243.909 304.617 244.086 302.261 244.601 335.882L244.862 353.35L237.75 359.852C233.89 363.467 228.507 368.961 225.927 372.086C220.183 378.949 207.252 402.204 206.334 407.412C205.558 411.809 205.422 411.905 197.043 411.382L190.419 411.049L187.58 404.821C182.527 393.549 168.079 374.654 157.901 366.057C146.995 356.856 147.792 360.457 149.632 329.041C151.058 304.711 150.615 302.485 143.903 301.302C140.432 300.69 137.341 302.651 134.476 307.396C131.121 312.89 127.149 338.799 126.798 357.709C126.358 377.798 124.725 382.999 117.034 389.398C108.253 396.561 97.0826 396.978 87.8715 390.342C65.8614 374.409 78.0036 311.638 110.673 272.532C121.107 260.053 119.48 260.482 129.215 266.852C143.348 276.027 150.142 278.776 170.408 282.946C185.718 286.123 190.735 286.769 200.225 286.413C223.975 285.709 246.853 279.123 264.095 267.964C269.07 264.784 273.461 262.217 273.944 262.183C274.407 262.265 278.097 266.376 282.202 271.515ZM166.5 261.5C166.092 261.786 168.03 262.599 167.281 262.109C166.416 261.599 166.825 261.313 168.098 261.537C169.391 261.646 167.024 261.234 166.5 261.5ZM335.509 409.068C334.019 417.516 333.148 419.749 329.609 424.256C321.571 434.652 311.266 439.636 297.665 439.625C289.455 439.49 287.624 439.047 256.717 428.228C238.963 421.995 223.421 416.749 222.38 416.565C219.834 416.116 219.916 415.653 223.944 406.341C227.496 398.376 237.433 383.303 242.483 378.346C245.662 375.208 247.908 374.649 247.459 377.195C246.582 382.172 254.569 397.78 261.384 404.47C277.043 419.88 301.91 421.639 318.804 408.39C324.058 404.305 331.409 395.1 332.021 391.629C332.715 387.694 334.464 388.599 335.806 393.847C336.889 397.857 336.815 401.662 335.509 409.068ZM164.849 397.71C170.875 406.171 175.403 413.651 175.049 414.305C174.674 415.074 169.767 417.192 164.301 419.092C158.699 421.087 146.079 425.664 136.27 429.184C105.639 440.489 102.29 441.211 91.5474 439.197C78.7018 436.932 70.9612 432.107 64.4045 422.598C58.6308 414.063 56.4784 404.614 58.1108 395.356C58.723 391.884 59.3489 389.012 59.5803 389.053C59.8118 389.093 62.3309 392.401 65.2109 396.37C72.6868 406.756 80.4614 412.065 91.7959 414.779C97.2895 416.106 103.157 416.664 106.656 416.445C124.001 414.85 138.546 402.738 144.997 384.425L147.576 377.243L150.817 379.843C152.601 381.232 158.919 389.386 164.849 397.71Z" fill="#003E70"/>
<path d="M194.285 188.116C184.639 188.683 179.241 193.578 180.801 200.296C181.837 205.252 184.111 207.92 188.195 209.118C191.047 209.859 191.504 210.656 191.341 213.61C191.089 215.714 189.83 218.117 188.135 219.608C185.426 222.113 185.311 222.093 182.206 219.397C178.121 216.171 176.385 215.865 174.146 217.738C171.614 219.916 173.037 224.702 177.238 227.948C182.187 231.685 189.355 231.636 194.066 227.932L197.666 225.107L202.098 228.394C206.224 231.389 207.034 231.531 211.581 230.782C217.599 229.814 222.533 224.838 222.151 220.236C221.824 216.002 216.732 215.104 214.513 218.889C212.295 222.674 206.74 221.695 204.792 217.175C202.749 212.519 203.661 210.055 208.106 207.856C211.387 206.167 212.19 204.996 212.863 201.177C214.108 194.118 210.861 190.204 202.855 188.912C199.479 188.436 195.619 187.994 194.285 188.116Z" fill="#003E70"/>
<path d="M240.666 143.673C233.709 145.906 229.599 155.682 232.35 163.088C235.612 171.658 247.443 174.937 254.508 169.382C259.627 165.392 261.151 161.484 260.184 155.467C258.664 146.488 249.29 140.778 240.666 143.673Z" fill="#003E70"/>
<path d="M148.512 141.862C144.802 141.924 138.016 146.574 136.437 150.114C133.239 157.426 137.141 167.779 144.262 170.705C152.383 174.047 162.696 168.347 164.383 159.457C166.172 149.988 158.58 141.609 148.512 141.862Z" fill="#003E70"/>
<path d="M931.332 201.763C926.074 203.426 924.018 206.518 919.217 220.89C916.7 228.433 914.521 235.28 914.374 236.118C913.912 238.734 911.59 234.763 904.981 220.214C901.575 212.598 897.868 205.468 896.864 204.428C894.474 202.064 884.949 200.384 880.115 201.475C877.419 202.079 875.799 203.304 874.377 205.86C872.617 209.111 872.715 209.776 874.754 214.129C878.129 221.308 891.365 248.466 897.025 259.826C901.023 267.762 901.854 270.391 901.048 272.516C900.562 274.049 896.709 284.271 892.499 295.293C885.346 314.431 885.039 315.564 886.018 319.19C886.794 322.134 888.057 323.543 891.154 324.953C898.026 328.215 907.97 326.299 911.147 321.139C912.938 318.325 922.866 290.178 937.139 247.795C942.137 232.918 947.097 218.25 948.156 215.307C949.953 210.011 949.923 209.574 947.699 206.268C945.63 203.313 944.343 202.654 939.632 201.824C936.597 201.288 932.822 201.27 931.332 201.763Z" fill="#003E70"/>
<path d="M837.435 202.149C834.719 202.858 831.142 204.17 829.351 205.149C826.857 206.436 825.441 206.51 822.621 205.365C817.885 203.451 808.181 202.172 804.364 203.01C800.214 203.897 798.977 207.24 799.304 217.012C799.49 221.47 799.763 237.06 799.888 251.653C800.194 284.195 800.336 285.839 803.107 288.486C805.047 290.339 806.408 290.579 812.873 290.64C821.487 290.756 824.492 289.019 825.187 283.853C825.396 282.055 825.536 272.689 825.381 263.164C825.226 253.639 825.329 242.648 825.698 238.719C826.306 231.595 826.306 231.595 830.739 228.491C835.911 224.87 840.923 225.214 844.71 229.444C848.498 233.673 848.972 237.103 849.179 259.805C849.342 281.528 849.94 286.706 852.772 288.393C858.542 291.785 869.459 290.472 873.067 285.927C874.975 283.673 875.135 281.543 874.683 260.848C874.379 248.49 874.236 235.837 874.315 232.937C874.727 222.648 869.842 212.397 861.751 206.868C855.519 202.424 844.565 200.276 837.435 202.149Z" fill="#003E70"/>
<path d="M727.247 183.045C720.142 184.167 719.28 186.605 719.572 203.926C719.721 212.263 719.883 228.481 719.916 239.928C719.995 276.207 720.538 285.369 723.217 288.54C726.672 292.819 735.945 293.482 741.449 289.812C744.983 287.521 745.586 284.713 745.35 272.583C745.201 264.246 745.331 263.513 747.344 261.278C748.544 259.978 750.003 259.048 750.527 259.141C751.155 259.251 754.228 263.247 757.381 268.012C760.534 272.778 765.658 279.833 768.768 283.62L774.557 290.577L781.349 291.235C789.938 292.102 794.027 290.34 795.387 285.075C796.347 281.467 795.78 280.396 782.558 261.119L768.645 240.857L780.472 226.429C786.96 218.398 792.482 210.953 792.704 209.697C793.35 206.034 790.099 204.273 781.681 203.652C776.251 203.234 773.486 203.61 770.974 205.002C769.164 206.086 762.718 213.26 756.722 220.946C749.328 230.435 745.727 234.333 745.369 233.299C744.994 232.369 744.74 222.179 744.621 210.609C744.483 191.805 744.28 189.286 742.26 186.663C739.581 183.493 733.688 182.022 727.247 183.045Z" fill="#003E70"/>
<path d="M429.512 143.713C417.825 143.272 413.953 144.424 412.168 148.426C411.454 150.027 410.883 162.447 410.965 179.73C410.887 195.475 410.904 225.375 410.796 246.187C410.719 272.941 411.115 284.775 412.144 286.899C413.394 289.602 414.09 289.941 421.768 291.079C452.882 295.809 486.831 279.561 500.867 253.218C506.825 242.073 510.167 226.796 509.235 214.327C507.582 191.262 496.896 171.677 478.484 157.961C467.412 149.748 448.834 144.314 429.512 143.713ZM457.718 177.181C464.793 181.127 470.317 186.526 475.102 194.277C482.523 206.055 483.843 218.161 479.257 231.923C475.786 242.428 470.369 249.891 461.977 255.859C455.346 260.41 442.509 265.27 438.74 264.606C436.856 264.274 436.856 264.274 436.72 217.299C436.762 205.434 436.674 190.631 436.679 184.48C436.579 178.311 436.893 172.861 437.281 172.498C438.641 170.903 452.015 174.017 457.718 177.181Z" fill="#003E70"/>
<path d="M647.977 185.687C644.406 186.353 640.829 189.5 640.293 192.535C639.537 196.827 639.951 251.406 640.959 283.64C641.051 284.951 641.747 287.124 642.554 288.67C645.424 293.817 660.922 294.067 664.431 288.858C665.724 287.035 666.118 284.19 666.123 276.204C665.974 266.032 666.207 265.318 670.178 261.161C671.237 260.053 673.658 262.854 682.729 275.678L694.061 291.6L701.08 292.19C711.505 293.057 717.619 289.601 715.801 283.992C715.29 282.607 709.039 272.762 701.747 262.086C689.473 244.164 688.666 242.619 690.205 240.623C691.16 239.497 695.1 234.903 699.126 230.432C703.152 225.961 707.997 219.908 710.035 216.921C713.525 211.816 713.704 211.416 712.558 208.731C711.345 205.819 709.849 205.124 703.494 204.435C697.367 203.678 692.553 204.664 689.961 207.121C688.409 208.575 683.072 214.973 677.82 221.494C672.674 228.034 667.761 233.86 666.776 234.549C664.646 236.224 664.64 236.871 664.686 213.35C664.836 188.012 664.953 188.573 656.425 186.745C652.675 185.976 648.87 185.521 647.977 185.687Z" fill="#003E70"/>
<path d="M525.101 177.948C516.161 180.905 513.99 194.445 521.287 200.805C526.177 204.905 534.464 204.424 539.593 199.823C544.58 195.414 544.621 185.384 539.756 180.532C537.195 177.922 529.239 176.519 525.101 177.948Z" fill="#003E70"/>
<path d="M589.643 204.107C572.064 205.865 556.703 218.914 552.069 236.014C547.275 253.409 555.504 275.907 570.573 286.551C575.468 290.004 577.402 290.669 586.613 292.293C595.006 293.665 598.325 293.819 603.595 292.698C615.694 290.19 630.698 277.941 632.23 269.252C632.95 265.17 628.737 259.678 623.46 257.776C617.469 255.641 612.303 256.78 607.944 261.301C602.12 267.397 597.281 269.134 590.36 267.374C580.545 264.888 575.156 256.275 576.964 246.016C578.238 238.793 581.039 234.538 586.605 231.742C592.663 228.601 600.009 229.788 606.093 235.07C608.538 237.12 612.085 239.041 613.969 239.373C617.842 240.056 625.908 237.161 628.592 234.181C632.883 229.433 627.685 219.126 617.407 211.917C609.907 206.709 597.881 203.293 589.643 204.107Z" fill="#003E70"/>
<path d="M525.644 208.146C521.247 209.205 517.972 213.701 517.764 219.168C517.727 221.213 517.759 232.659 517.927 244.561C518.095 256.464 518.294 270.638 518.295 276.143C518.432 289.442 520.169 292.447 528.272 293.012C531.363 293.234 535.526 292.888 537.453 292.364C543.518 290.412 543.647 289.679 543.309 251.196C543.277 243.419 543.189 232.286 543.158 226.344C543.23 213.081 541.203 209.27 533.876 207.978C531.345 207.64 527.675 207.641 525.644 208.146Z" fill="#003E70"/>
<path d="M400.903 413V399.434L388.51 379.289L392.59 376.841L403.504 394.946L414.214 377.045L418.039 379.289L405.748 399.434V413H400.903ZM430.442 413.612C427.926 413.612 425.665 413.034 423.659 411.878C421.653 410.688 420.072 409.056 418.916 406.982C417.794 404.874 417.233 402.46 417.233 399.74C417.233 396.884 417.811 394.419 418.967 392.345C420.123 390.271 421.704 388.673 423.71 387.551C425.716 386.429 427.96 385.868 430.442 385.868C432.924 385.868 435.151 386.429 437.123 387.551C439.129 388.673 440.71 390.271 441.866 392.345C443.056 394.385 443.651 396.816 443.651 399.638C443.651 402.46 443.073 404.925 441.917 407.033C440.761 409.107 439.18 410.722 437.174 411.878C435.202 413.034 432.958 413.612 430.442 413.612ZM430.442 409.532C433.128 409.532 435.219 408.631 436.715 406.829C438.211 404.993 438.959 402.63 438.959 399.74C438.959 397.972 438.585 396.357 437.837 394.895C437.089 393.399 436.069 392.209 434.777 391.325C433.519 390.407 432.074 389.948 430.442 389.948C427.756 389.948 425.665 390.832 424.169 392.6C422.673 394.368 421.925 396.714 421.925 399.638C421.925 401.406 422.299 403.055 423.047 404.585C423.795 406.081 424.798 407.288 426.056 408.206C427.348 409.09 428.81 409.532 430.442 409.532ZM458.424 413.612C456.894 413.612 455.449 413.289 454.089 412.643C452.729 411.997 451.624 410.96 450.774 409.532C449.924 408.07 449.499 406.132 449.499 403.718V386.48H454.089V403.106C454.089 405.18 454.531 406.778 455.415 407.9C456.299 408.988 457.591 409.532 459.291 409.532C460.685 409.532 462.028 409.26 463.32 408.716C464.646 408.138 465.819 407.373 466.839 406.421V386.48H471.429V406.115C471.429 407.577 471.735 408.546 472.347 409.022C472.993 409.464 473.69 409.685 474.438 409.685L473.469 413.255C470.307 413.255 468.352 411.997 467.604 409.481C466.414 410.705 465.037 411.708 463.473 412.49C461.909 413.238 460.226 413.612 458.424 413.612ZM480.533 413V386.48H484.97V392.243C485.412 391.121 486.007 390.084 486.755 389.132C487.503 388.146 488.438 387.364 489.56 386.786C490.682 386.174 491.991 385.868 493.487 385.868C493.997 385.868 494.507 385.902 495.017 385.97C495.527 386.004 495.952 386.072 496.292 386.174L494.915 390.917C494.269 390.645 493.504 390.509 492.62 390.509C491.362 390.509 490.155 390.866 488.999 391.58C487.877 392.294 486.942 393.399 486.194 394.895C485.48 396.391 485.123 398.295 485.123 400.607V413H480.533ZM516.703 413V377.3H537.868V381.482H521.548V392.396H535.165V396.374H521.548V413H516.703ZM551.095 413.612C548.885 413.612 546.879 413.051 545.077 411.929C543.275 410.807 541.83 409.226 540.742 407.186C539.688 405.112 539.161 402.681 539.161 399.893C539.161 397.241 539.688 394.861 540.742 392.753C541.83 390.645 543.309 388.979 545.179 387.755C547.083 386.497 549.259 385.868 551.707 385.868C553.237 385.868 554.614 386.14 555.838 386.684C557.096 387.194 558.184 387.84 559.102 388.622V386.48H563.284V406.574C563.284 407.866 563.59 408.716 564.202 409.124C564.848 409.498 565.545 409.685 566.293 409.685L565.324 413.255C562.06 413.255 560.088 411.929 559.408 409.277C558.626 410.365 557.555 411.368 556.195 412.286C554.869 413.17 553.169 413.612 551.095 413.612ZM552.115 409.532C553.407 409.532 554.631 409.226 555.787 408.614C556.943 407.968 557.912 407.169 558.694 406.217V391.988C557.776 391.342 556.756 390.832 555.634 390.458C554.546 390.05 553.39 389.846 552.166 389.846C550.534 389.846 549.089 390.271 547.831 391.121C546.607 391.937 545.638 393.093 544.924 394.589C544.21 396.051 543.853 397.768 543.853 399.74C543.853 401.644 544.21 403.344 544.924 404.84C545.638 406.302 546.624 407.458 547.882 408.308C549.14 409.124 550.551 409.532 552.115 409.532ZM579.563 413.612C577.557 413.612 575.738 413.357 574.106 412.847C572.508 412.337 571.182 411.674 570.128 410.858L572.066 407.033C572.95 407.781 574.055 408.41 575.381 408.92C576.741 409.396 578.186 409.634 579.716 409.634C581.62 409.634 583.048 409.328 584 408.716C584.986 408.07 585.479 407.254 585.479 406.268C585.479 405.554 585.292 404.925 584.918 404.381C584.578 403.837 583.932 403.31 582.98 402.8C582.028 402.256 580.651 401.678 578.849 401.066C576.367 400.216 574.497 399.213 573.239 398.057C572.015 396.867 571.403 395.235 571.403 393.161C571.403 391.121 572.287 389.404 574.055 388.01C575.857 386.582 578.339 385.868 581.501 385.868C583.201 385.868 584.714 386.055 586.04 386.429C587.366 386.769 588.556 387.211 589.61 387.755L588.335 391.529C587.417 390.985 586.363 390.543 585.173 390.203C584.017 389.863 582.725 389.693 581.297 389.693C579.529 389.693 578.186 390.05 577.268 390.764C576.35 391.478 575.891 392.26 575.891 393.11C575.891 393.926 576.248 394.623 576.962 395.201C577.676 395.779 579.07 396.408 581.144 397.088C584.51 398.21 586.856 399.451 588.182 400.811C589.508 402.171 590.171 403.871 590.171 405.911C590.171 408.291 589.202 410.178 587.264 411.572C585.36 412.932 582.793 413.612 579.563 413.612ZM596.279 413V375.26H600.869V390.713C601.821 389.319 603.028 388.163 604.49 387.245C605.952 386.327 607.669 385.868 609.641 385.868C612.633 385.868 614.86 386.769 616.322 388.571C617.818 390.373 618.566 392.753 618.566 395.711V413H613.976V396.221C613.976 394.317 613.534 392.787 612.65 391.631C611.766 390.475 610.525 389.897 608.927 389.897C607.363 389.897 605.867 390.458 604.439 391.58C603.045 392.668 601.855 393.96 600.869 395.456V413H596.279ZM626.461 413V386.48H631.051V413H626.461ZM628.756 381.941C627.872 381.941 627.107 381.618 626.461 380.972C625.849 380.326 625.543 379.578 625.543 378.728C625.543 377.742 625.832 376.96 626.41 376.382C626.988 375.804 627.77 375.515 628.756 375.515C629.64 375.515 630.388 375.838 631 376.484C631.646 377.096 631.969 377.844 631.969 378.728C631.969 379.68 631.68 380.462 631.102 381.074C630.524 381.652 629.742 381.941 628.756 381.941ZM650.38 413.612C647.864 413.612 645.603 413.034 643.597 411.878C641.591 410.688 640.01 409.056 638.854 406.982C637.732 404.874 637.171 402.46 637.171 399.74C637.171 396.884 637.749 394.419 638.905 392.345C640.061 390.271 641.642 388.673 643.648 387.551C645.654 386.429 647.898 385.868 650.38 385.868C652.862 385.868 655.089 386.429 657.061 387.551C659.067 388.673 660.648 390.271 661.804 392.345C662.994 394.385 663.589 396.816 663.589 399.638C663.589 402.46 663.011 404.925 661.855 407.033C660.699 409.107 659.118 410.722 657.112 411.878C655.14 413.034 652.896 413.612 650.38 413.612ZM650.38 409.532C653.066 409.532 655.157 408.631 656.653 406.829C658.149 404.993 658.897 402.63 658.897 399.74C658.897 397.972 658.523 396.357 657.775 394.895C657.027 393.399 656.007 392.209 654.715 391.325C653.457 390.407 652.012 389.948 650.38 389.948C647.694 389.948 645.603 390.832 644.107 392.6C642.611 394.368 641.863 396.714 641.863 399.638C641.863 401.406 642.237 403.055 642.985 404.585C643.733 406.081 644.736 407.288 645.994 408.206C647.286 409.09 648.748 409.532 650.38 409.532ZM669.691 413V386.48H674.128V390.917C675.08 389.489 676.287 388.299 677.749 387.347C679.245 386.361 681.013 385.868 683.053 385.868C686.045 385.868 688.272 386.769 689.734 388.571C691.23 390.373 691.978 392.753 691.978 395.711V413H687.388V396.221C687.388 394.317 686.929 392.787 686.011 391.631C685.127 390.475 683.886 389.897 682.288 389.897C680.724 389.897 679.245 390.458 677.851 391.58C676.457 392.668 675.267 393.96 674.281 395.456V413H669.691ZM699.822 421.16L697.323 419.732C698.683 417.998 699.771 416.247 700.587 414.479C701.437 412.711 702.083 410.688 702.525 408.41L707.013 409.685C706.673 412.269 705.857 414.53 704.565 416.468C703.307 418.406 701.726 419.97 699.822 421.16ZM745.753 413.612C743.101 413.612 740.738 413.136 738.664 412.184C736.59 411.198 734.822 409.872 733.36 408.206C731.932 406.506 730.827 404.534 730.045 402.29C729.297 400.046 728.923 397.649 728.923 395.099C728.923 391.597 729.586 388.469 730.912 385.715C732.272 382.927 734.21 380.734 736.726 379.136C739.242 377.504 742.251 376.688 745.753 376.688C748.371 376.688 750.717 377.164 752.791 378.116C754.899 379.068 756.684 380.394 758.146 382.094C759.608 383.794 760.713 385.749 761.461 387.959C762.243 390.169 762.634 392.549 762.634 395.099C762.634 397.649 762.243 400.046 761.461 402.29C760.713 404.534 759.608 406.506 758.146 408.206C756.684 409.872 754.916 411.198 752.842 412.184C750.768 413.136 748.405 413.612 745.753 413.612ZM745.753 409.43C748.371 409.43 750.564 408.801 752.332 407.543C754.1 406.285 755.426 404.585 756.31 402.443C757.228 400.267 757.687 397.819 757.687 395.099C757.687 393.263 757.415 391.495 756.871 389.795C756.327 388.095 755.545 386.582 754.525 385.256C753.505 383.896 752.247 382.825 750.751 382.043C749.289 381.261 747.623 380.87 745.753 380.87C743.271 380.87 741.129 381.499 739.327 382.757C737.559 384.015 736.199 385.715 735.247 387.857C734.329 389.999 733.87 392.413 733.87 395.099C733.87 396.935 734.125 398.72 734.635 400.454C735.179 402.154 735.961 403.684 736.981 405.044C738.001 406.404 739.242 407.475 740.704 408.257C742.2 409.039 743.883 409.43 745.753 409.43ZM777.921 413.612C776.391 413.612 774.946 413.289 773.586 412.643C772.226 411.997 771.121 410.96 770.271 409.532C769.421 408.07 768.996 406.132 768.996 403.718V386.48H773.586V403.106C773.586 405.18 774.028 406.778 774.912 407.9C775.796 408.988 777.088 409.532 778.788 409.532C780.182 409.532 781.525 409.26 782.817 408.716C784.143 408.138 785.316 407.373 786.336 406.421V386.48H790.926V406.115C790.926 407.577 791.232 408.546 791.844 409.022C792.49 409.464 793.187 409.685 793.935 409.685L792.966 413.255C789.804 413.255 787.849 411.997 787.101 409.481C785.911 410.705 784.534 411.708 782.97 412.49C781.406 413.238 779.723 413.612 777.921 413.612ZM800.03 413V386.48H804.467V392.243C804.909 391.121 805.504 390.084 806.252 389.132C807 388.146 807.935 387.364 809.057 386.786C810.179 386.174 811.488 385.868 812.984 385.868C813.494 385.868 814.004 385.902 814.514 385.97C815.024 386.004 815.449 386.072 815.789 386.174L814.412 390.917C813.766 390.645 813.001 390.509 812.117 390.509C810.859 390.509 809.652 390.866 808.496 391.58C807.374 392.294 806.439 393.399 805.691 394.895C804.977 396.391 804.62 398.295 804.62 400.607V413H800.03ZM836.2 413V377.402C837.594 377.232 839.124 377.113 840.79 377.045C842.49 376.943 844.241 376.892 846.043 376.892C849.001 376.892 851.517 377.368 853.591 378.32C855.665 379.238 857.246 380.513 858.334 382.145C859.422 383.777 859.966 385.647 859.966 387.755C859.966 390.305 859.337 392.464 858.079 394.232C856.821 396 855.07 397.36 852.826 398.312C850.582 399.23 847.981 399.689 845.023 399.689C843.595 399.689 842.269 399.638 841.045 399.536V413H836.2ZM845.635 395.66C848.661 395.66 851.007 394.98 852.673 393.62C854.339 392.26 855.172 390.441 855.172 388.163C855.172 385.953 854.373 384.202 852.775 382.91C851.177 381.618 848.899 380.972 845.941 380.972C845.023 380.972 844.156 380.989 843.34 381.023C842.524 381.057 841.759 381.108 841.045 381.176V395.405C841.589 395.473 842.252 395.541 843.034 395.609C843.816 395.643 844.683 395.66 845.635 395.66ZM874.726 413.612C872.516 413.612 870.51 413.051 868.708 411.929C866.906 410.807 865.461 409.226 864.373 407.186C863.319 405.112 862.792 402.681 862.792 399.893C862.792 397.241 863.319 394.861 864.373 392.753C865.461 390.645 866.94 388.979 868.81 387.755C870.714 386.497 872.89 385.868 875.338 385.868C876.868 385.868 878.245 386.14 879.469 386.684C880.727 387.194 881.815 387.84 882.733 388.622V386.48H886.915V406.574C886.915 407.866 887.221 408.716 887.833 409.124C888.479 409.498 889.176 409.685 889.924 409.685L888.955 413.255C885.691 413.255 883.719 411.929 883.039 409.277C882.257 410.365 881.186 411.368 879.826 412.286C878.5 413.17 876.8 413.612 874.726 413.612ZM875.746 409.532C877.038 409.532 878.262 409.226 879.418 408.614C880.574 407.968 881.543 407.169 882.325 406.217V391.988C881.407 391.342 880.387 390.832 879.265 390.458C878.177 390.05 877.021 389.846 875.797 389.846C874.165 389.846 872.72 390.271 871.462 391.121C870.238 391.937 869.269 393.093 868.555 394.589C867.841 396.051 867.484 397.768 867.484 399.74C867.484 401.644 867.841 403.344 868.555 404.84C869.269 406.302 870.255 407.458 871.513 408.308C872.771 409.124 874.182 409.532 875.746 409.532ZM903.194 413.612C901.188 413.612 899.369 413.357 897.737 412.847C896.139 412.337 894.813 411.674 893.759 410.858L895.697 407.033C896.581 407.781 897.686 408.41 899.012 408.92C900.372 409.396 901.817 409.634 903.347 409.634C905.251 409.634 906.679 409.328 907.631 408.716C908.617 408.07 909.11 407.254 909.11 406.268C909.11 405.554 908.923 404.925 908.549 404.381C908.209 403.837 907.563 403.31 906.611 402.8C905.659 402.256 904.282 401.678 902.48 401.066C899.998 400.216 898.128 399.213 896.87 398.057C895.646 396.867 895.034 395.235 895.034 393.161C895.034 391.121 895.918 389.404 897.686 388.01C899.488 386.582 901.97 385.868 905.132 385.868C906.832 385.868 908.345 386.055 909.671 386.429C910.997 386.769 912.187 387.211 913.241 387.755L911.966 391.529C911.048 390.985 909.994 390.543 908.804 390.203C907.648 389.863 906.356 389.693 904.928 389.693C903.16 389.693 901.817 390.05 900.899 390.764C899.981 391.478 899.522 392.26 899.522 393.11C899.522 393.926 899.879 394.623 900.593 395.201C901.307 395.779 902.701 396.408 904.775 397.088C908.141 398.21 910.487 399.451 911.813 400.811C913.139 402.171 913.802 403.871 913.802 405.911C913.802 408.291 912.833 410.178 910.895 411.572C908.991 412.932 906.424 413.612 903.194 413.612ZM927.05 413.612C925.044 413.612 923.225 413.357 921.593 412.847C919.995 412.337 918.669 411.674 917.615 410.858L919.553 407.033C920.437 407.781 921.542 408.41 922.868 408.92C924.228 409.396 925.673 409.634 927.203 409.634C929.107 409.634 930.535 409.328 931.487 408.716C932.473 408.07 932.966 407.254 932.966 406.268C932.966 405.554 932.779 404.925 932.405 404.381C932.065 403.837 931.419 403.31 930.467 402.8C929.515 402.256 928.138 401.678 926.336 401.066C923.854 400.216 921.984 399.213 920.726 398.057C919.502 396.867 918.89 395.235 918.89 393.161C918.89 391.121 919.774 389.404 921.542 388.01C923.344 386.582 925.826 385.868 928.988 385.868C930.688 385.868 932.201 386.055 933.527 386.429C934.853 386.769 936.043 387.211 937.097 387.755L935.822 391.529C934.904 390.985 933.85 390.543 932.66 390.203C931.504 389.863 930.212 389.693 928.784 389.693C927.016 389.693 925.673 390.05 924.755 390.764C923.837 391.478 923.378 392.26 923.378 393.11C923.378 393.926 923.735 394.623 924.449 395.201C925.163 395.779 926.557 396.408 928.631 397.088C931.997 398.21 934.343 399.451 935.669 400.811C936.995 402.171 937.658 403.871 937.658 405.911C937.658 408.291 936.689 410.178 934.751 411.572C932.847 412.932 930.28 413.612 927.05 413.612ZM943.767 413V386.48H948.357V413H943.767ZM946.062 381.941C945.178 381.941 944.413 381.618 943.767 380.972C943.155 380.326 942.849 379.578 942.849 378.728C942.849 377.742 943.138 376.96 943.716 376.382C944.294 375.804 945.076 375.515 946.062 375.515C946.946 375.515 947.694 375.838 948.306 376.484C948.952 377.096 949.275 377.844 949.275 378.728C949.275 379.68 948.986 380.462 948.408 381.074C947.83 381.652 947.048 381.941 946.062 381.941ZM967.686 413.612C965.17 413.612 962.909 413.034 960.903 411.878C958.897 410.688 957.316 409.056 956.16 406.982C955.038 404.874 954.477 402.46 954.477 399.74C954.477 396.884 955.055 394.419 956.211 392.345C957.367 390.271 958.948 388.673 960.954 387.551C962.96 386.429 965.204 385.868 967.686 385.868C970.168 385.868 972.395 386.429 974.367 387.551C976.373 388.673 977.954 390.271 979.11 392.345C980.3 394.385 980.895 396.816 980.895 399.638C980.895 402.46 980.317 404.925 979.161 407.033C978.005 409.107 976.424 410.722 974.418 411.878C972.446 413.034 970.202 413.612 967.686 413.612ZM967.686 409.532C970.372 409.532 972.463 408.631 973.959 406.829C975.455 404.993 976.203 402.63 976.203 399.74C976.203 397.972 975.829 396.357 975.081 394.895C974.333 393.399 973.313 392.209 972.021 391.325C970.763 390.407 969.318 389.948 967.686 389.948C965 389.948 962.909 390.832 961.413 392.6C959.917 394.368 959.169 396.714 959.169 399.638C959.169 401.406 959.543 403.055 960.291 404.585C961.039 406.081 962.042 407.288 963.3 408.206C964.592 409.09 966.054 409.532 967.686 409.532ZM986.997 413V386.48H991.434V390.917C992.386 389.489 993.593 388.299 995.055 387.347C996.551 386.361 998.319 385.868 1000.36 385.868C1003.35 385.868 1005.58 386.769 1007.04 388.571C1008.54 390.373 1009.28 392.753 1009.28 395.711V413H1004.69V396.221C1004.69 394.317 1004.23 392.787 1003.32 391.631C1002.43 390.475 1001.19 389.897 999.594 389.897C998.03 389.897 996.551 390.458 995.157 391.58C993.763 392.668 992.573 393.96 991.587 395.456V413H986.997Z" fill="#003E70"/>
<path d="M964.779 166.719V198H958.355V166.719H964.779ZM974.404 166.719V171.768H948.881V166.719H974.404ZM981.021 166.719H986.479L994.514 189.686L1002.55 166.719H1008.01L996.705 198H992.322L981.021 166.719ZM978.078 166.719H983.514L984.502 189.105V198H978.078V166.719ZM1005.51 166.719H1010.97V198H1004.53V189.105L1005.51 166.719Z" fill="#003E70"/>
</g>
<defs>
<clipPath id="clip0_262_1206">
<rect width="1052" height="500" fill="white"/>
</clipPath>
</defs>
</svg>
