<svg xmlns="http://www.w3.org/2000/svg" xmlns:xlink="http://www.w3.org/1999/xlink" version="1.1" id="Layer_1" x="0px" y="0px" width="18.609" height="18.609" viewBox="0 0 18.6 18.6" style="enable-background:new 0 0 18.6 18.6;" xml:space="preserve">
<style type="text/css">
	.st0{fill:none;}
	.st1{fill:none;stroke:#000000;stroke-width:1.333;stroke-linecap:round;stroke-linejoin:round;}
	.st2{display:none;fill:none;stroke:#000000;stroke-width:1.333;stroke-linecap:round;stroke-linejoin:round;}
</style>
<path class="st0" d="M0,0h18v18H0V0z"/>
<g>
	<path class="st1" d="M13.6,14.3c-0.8,0.6-2.4,1.6-4.5,1.6C5.7,16,2.4,13.5,0.8,9.6C1.7,7.7,3,6.1,4.6,4.9c0,0,1.5-1.3,2.9-1.4   s1.1-0.2,1.6-0.2c5.3,0,8.3,6.3,8.3,6.3c-0.1,0.2-0.2,0.4-0.4,0.7c-0.5,0.9-1,1.5-1.2,1.8C15.1,13,14.3,13.7,13.6,14.3z M10.7,11.2   c-0.6,0.6-1.4,0.9-2.2,0.7C7.7,11.7,7,11,6.9,10.2c-0.2-0.8,0-1.7,0.7-2.3"/>
	<path class="st2" d="M1,1l16.7,16.7"/>
	<path class="st1" d="M7.2,8.3c0.4-0.7,1.3-1.1,2.1-1c0.8,0.1,1.6,0.7,1.9,1.4c0.3,0.8,0.2,1.7-0.3,2.4"/>
</g>
<path class="st1" d="M13.8,13.3"/>
</svg>